<svg xmlns="http://www.w3.org/2000/svg" viewBox="0 0 128 128"><style>path{fill:#222}@media(prefers-color-scheme:dark){path{fill:#eee}}</style><path d="M50.4 78.5a75.1 75.1 0 0 0-28.5 6.9l24.2-65.7c.7-2 1.9-3.2 3.4-3.2h29c1.5 0 2.7 1.2 3.4 3.2l24.2 65.7s-11.6-6.9-28.5-6.9l-7.7-21.2c-.3-.9-.9-1.4-1.6-1.4-.7 0-1.3.5-1.6 1.4l-7.6 21.2zM68 89.5c10.4 0 16.7-4.6 16.7-12.3 0-1.6-.3-3.2-.8-4.5-.5 1.7-1.5 3.1-2.9 4.2-3.6 2.9-9 3.4-15.2 3.4-7.6 0-15.7-1.5-19.7-7.4-.5 1.3-.8 2.8-.8 4.3 0 7.7 6.3 12.3 16.7 12.3z"/></svg>
