<svg xmlns="http://www.w3.org/2000/svg" viewBox="0 0 540 720">
    <defs>
        <style>
            .cls-2 { fill: #005af0; }
            .cls-3 { fill: #fff; }
            .cls-4 {
            fill: #005af0;
            fill-opacity: 0.9;
            }
            .cls-5 {
            fill: #005af0;
            fill-opacity: 0.4;
            }
        </style>
    </defs>

    <g>
        <path
            class="cls-2"
            d="M270,90c149.12,0,270,120.89,270,270S419.12,630,270,630,0,509.11,0,360,120.88,90,270,90Z"
        />

        <path
            class="cls-3"
            d="M278.12,208.43,386.3,239.62a27,27,0,0,1,19.56,26l0,123.92a26.57,26.57,0,0,1-.64,5.83,131.68,131.68,0,0,1-9.77,28.4c-16.91,35.31-45.29,53.47-61.71,63.69a196.91,196.91,0,0,1-59.36,24.47,27.11,27.11,0,0,1-14.24-.54,219.41,219.41,0,0,1-60.52-29.71c-16.59-11.65-39-27.39-53.81-57.07a128.68,128.68,0,0,1-11.13-32.88,26.85,26.85,0,0,1-.51-5.22V265.73a27.05,27.05,0,0,1,19.61-26l109.43-31.31A27.1,27.1,0,0,1,278.12,208.43Z"
        />

        <path
            class="cls-4"
            d="M256.76,383.67l18.11-108.22-11,0-59.41,99.07a10,10,0,0,0-1.19,3.44,5.4,5.4,0,0,0,5.39,5.39h.47"
        />

        <path
            class="cls-5"
            d="M283.24,336.33,265.12,444.55l11,0,59.41-99.07a10,10,0,0,0,1.19-3.44,5.4,5.4,0,0,0-5.39-5.39h-.47"
        />
    </g>
</svg>
