<svg xmlns="http://www.w3.org/2000/svg" viewBox="0 0 3595.31 720"><defs><style>.cls-1,.cls-3{fill:#fff;}.cls-1{opacity:0;}.cls-2,.cls-4,.cls-5{fill:#005af0;}.cls-4{fill-opacity:0.9;}.cls-5{fill-opacity:0.4;}</style></defs><g id="Layer_2" data-name="Layer 2"><g id="Layer_1-2" data-name="Layer 1"><rect class="cls-1" x="4.19" width="3591.12" height="720"/><path class="cls-2" d="M835,434.65H729.9l-16.84,49.72H641.28l101.85-281.5h79.4l101.86,281.5H851.8Zm-52.53-156L748,381.72h69.37Z"/><path class="cls-2" d="M1263.63,362.87c0-29.27-16.84-45.31-42.9-45.31s-42.91,16-42.91,45.31v121.5h-68.17V362.87c0-29.27-16.84-45.31-42.91-45.31s-42.91,16-42.91,45.31v121.5H955.26V260.61h68.57v28.07c13.24-18,36.09-30.47,65.37-30.47,33.68,0,61,14.83,76.19,41.7,14.83-23.66,42.9-41.7,75.39-41.7,55.33,0,91,35.29,91,95.44V484.37h-68.17Z"/><path class="cls-2" d="M1517.46,257.41c54.94,0,98.65,44.11,98.65,114.68s-43.71,115.49-98.65,115.49c-32.88,0-56.54-15.64-69-34.49V591h-68.57V260.61h68.57v31.68C1460.92,272.64,1484.58,257.41,1517.46,257.41ZM1497,317.16c-25.66,0-48.92,19.64-48.92,55.33s23.26,55.34,48.92,55.34c26.07,0,49.32-20.05,49.32-55.74S1523.08,317.16,1497,317.16Z"/><path class="cls-2" d="M1873.14,484.37h-68.57V453.9c-13.63,19.24-37.69,32.88-67.77,32.88-51.73,0-86.61-35.69-86.61-95.44V260.61h68.17V382.12c0,30.47,17.24,47.32,42.9,47.32,26.47,0,43.31-16.85,43.31-47.32V260.61h68.57Z"/><path class="cls-2" d="M1933.29,317.56H1906V260.61h27.27V206.08h68.57v54.53h44.91v56.95h-44.91v89.82c0,13.23,5.61,18.85,20.85,18.85h24.46v58.14h-34.88c-46.52,0-79-19.65-79-77.79Z"/><path class="cls-2" d="M2170.28,257.41c33.28,0,56.94,15.23,69,34.88V260.61h68.57V484.37h-68.57V452.69c-12.43,19.65-36.09,34.89-69.37,34.89-54.54,0-98.25-44.91-98.25-115.49S2115.34,257.41,2170.28,257.41Zm20,59.75c-25.67,0-48.92,19.24-48.92,54.93s23.25,55.74,48.92,55.74c26.06,0,48.92-19.65,48.92-55.34S2216.39,317.16,2190.33,317.16Z"/><path class="cls-2" d="M2368.37,317.56H2341.1V260.61h27.27V206.08h68.57v54.53h44.91v56.95h-44.91v89.82c0,13.23,5.61,18.85,20.85,18.85h24.46v58.14h-34.89c-46.51,0-79-19.65-79-77.79Z"/><path class="cls-2" d="M2622.19,487.58c-65.76,0-115.48-44.11-115.48-115.09S2557.63,257.41,2623,257.41c65.76,0,116.29,44.11,116.29,115.08S2688,487.58,2622.19,487.58Zm0-59.35c24.47,0,47.32-18,47.32-55.74,0-38.09-22.45-55.74-46.51-55.74-24.87,0-46.52,17.65-46.52,55.74C2576.48,410.19,2597.33,428.23,2622.19,428.23Z"/><path class="cls-2" d="M2844.35,484.37h-68.57V260.61h68.57v37.3c15.64-23.66,40.1-39.7,70.17-39.7v72.58h-18.85c-32.48,0-51.32,11.23-51.32,49.72Z"/><path class="cls-2" d="M3078.53,484.37H2947.4V202.87h126.72c57.34,0,91.42,28.47,91.42,73,0,34.09-20.45,56.14-47.71,64.16,32.88,6.82,54.13,35.69,54.13,67.77C3172,454.3,3137.88,484.37,3078.53,484.37Zm-17.65-226.56H3016v58.94h44.91c22.46,0,34.89-10,34.89-29.27S3083.34,257.81,3060.88,257.81Zm4.82,109.07H3016V429h50.53c22.85,0,36.09-10.42,36.09-30.47S3088.55,366.88,3065.7,366.88Z"/><path class="cls-2" d="M3313.51,487.58c-65.76,0-115.49-44.11-115.49-115.09S3249,257.41,3314.31,257.41c65.77,0,116.29,44.11,116.29,115.08S3379.28,487.58,3313.51,487.58Zm0-59.35c24.46,0,47.32-18,47.32-55.74,0-38.09-22.46-55.74-46.52-55.74-24.86,0-46.51,17.65-46.51,55.74C3267.8,410.19,3288.65,428.23,3313.51,428.23Z"/><path class="cls-2" d="M3477.92,317.56h-27.27V260.61h27.27V206.08h68.57v54.53h44.91v56.95h-44.91v89.82c0,13.23,5.61,18.85,20.85,18.85h24.46v58.14h-34.88c-46.52,0-79-19.65-79-77.79Z"/><path class="cls-2" d="M270,90c149.12,0,270,120.89,270,270S419.12,630,270,630,0,509.11,0,360,120.88,90,270,90Z"/><path class="cls-3" d="M278.12,208.43,386.3,239.62a27,27,0,0,1,19.56,26l0,123.92a26.57,26.57,0,0,1-.64,5.83,131.68,131.68,0,0,1-9.77,28.4c-16.91,35.31-45.29,53.47-61.71,63.69a196.91,196.91,0,0,1-59.36,24.47,27.11,27.11,0,0,1-14.24-.54,219.41,219.41,0,0,1-60.52-29.71c-16.59-11.65-39-27.39-53.81-57.07a128.68,128.68,0,0,1-11.13-32.88,26.85,26.85,0,0,1-.51-5.22V265.73a27.05,27.05,0,0,1,19.61-26l109.43-31.31A27.1,27.1,0,0,1,278.12,208.43Z"/><path class="cls-4" d="M256.76,383.67l18.11-108.22-11,0-59.41,99.07a10,10,0,0,0-1.19,3.44,5.4,5.4,0,0,0,5.39,5.39h.47"/><path class="cls-5" d="M283.24,336.33,265.12,444.55l11,0,59.41-99.07a10,10,0,0,0,1.19-3.44,5.4,5.4,0,0,0-5.39-5.39h-.47"/></g></g></svg>